<?xml version="1.0" encoding="utf-8"?>
<svg version="1.1" xmlns="http://www.w3.org/2000/svg" xmlns:xlink="http://www.w3.org/1999/xlink" x="0px" y="0px" viewBox="0 0 165 165" xml:space="preserve">
	<path d="M82.4998-0.0001c-45.4902,0-82.5,37.0093-82.5,82.5s37.0098,82.5,82.5,82.5s82.5-37.0093,82.5-82.5 S127.99-0.0001,82.4998-0.0001z M142.073,74.9999H97.4998c-4.1421,0-7.5-3.3579-7.5-7.5V22.9267 c0-4.1421,3.3532-7.1715,7.3933-6.2581c25.2817,5.7158,45.2233,25.6578,50.9384,50.9398 C149.2448,71.6485,146.2152,74.9999,142.073,74.9999z M74.9998,22.9267v44.5732c0,4.1421-3.3579,7.5-7.5,7.5H22.9265 c-4.1421,0-7.1715-3.3532-6.2581-7.3933c5.7158-25.2817,25.6578-45.2233,50.9398-50.9384 C71.6484,15.7549,74.9998,18.7845,74.9998,22.9267z M22.9265,89.9999h44.5732c4.1421,0,7.5,3.3579,7.5,7.5v44.5732 c0,4.1421-3.3532,7.1715-7.3933,6.2581c-25.2817-5.7158-45.2233-25.6578-50.9384-50.9398 C15.7547,93.3513,18.7844,89.9999,22.9265,89.9999z M89.9998,142.0732V97.4999c0-4.1421,3.3579-7.5,7.5-7.5h44.5732 c4.1421,0,7.1715,3.3532,6.2581,7.3933c-5.7158,25.2817-25.6578,45.2233-50.9398,50.9384 C93.3512,149.245,89.9998,146.2153,89.9998,142.0732z"/>
</svg>
